# xmcd
#
# Track frame offsets: 
#        150
#        18227
#        48687
#
# Disc length: 947 seconds
#
# Revision: 0
# Processed by: cddbd v1.5.1PL0 Copyright (c) Steve Scherf et al.
# Submitted via: ExactAudioCopy v0.90b4
#
DISCID=1e03b103
DTITLE=K2 - Der Berg ruft - The Remixes
DYEAR=1994
DGENRE=Techno
TTITLE0=Der Berg ruft (Short Version)
TTITLE1=Der Berg ruft (Alptraum Mix)
TTITLE2=Der Berg ruft (Hosenträger Trauma Mix)
EXTD=
EXTT0=
EXTT1=
EXTT2=
PLAYORDER=
